<svg id="Layer_1" data-name="Layer 1" xmlns="http://www.w3.org/2000/svg" viewBox="0 0 1081.12 1081.12"><defs><style>.cls-1,.cls-3,.cls-4,.cls-5{fill:#fff;}.cls-2{fill:#24408e;}.cls-3{font-size:135.12px;}.cls-3,.cls-4{font-family:Avenir-Heavy, Avenir;}.cls-3,.cls-4,.cls-5{font-weight:800;}.cls-4{font-size:135.12px;}.cls-5{font-size:135.12px;font-family:Avenir-Black, Avenir;}</style></defs><path class="cls-1" d="M540.56,0C242.41,0,0,242.41,0,540.56s242.41,540.56,540.56,540.56,540.56-242.4,540.56-540.56S838.71,0,540.56,0"/><path class="cls-2" d="M540.56,20.9C254.14,20.9,20.91,254.14,20.91,540.56c0,286.78,233.23,519.66,519.65,519.66,286.78,0,519.66-233.24,519.66-519.66S827.34,20.9,540.56,20.9"/><path class="cls-1" d="M703.4,540.56c0-89.85-73-162.82-162.84-162.82s-162.83,73-162.83,162.82,73,162.83,162.83,162.83,162.84-73,162.84-162.83"/><path class="cls-1" d="M280.92,519.66a8.72,8.72,0,0,0,5.13,2.2c1.83,0,3.66-1.1,5.5-2.94a11.57,11.57,0,0,0,3.31-8.42,9.47,9.47,0,0,0-3.31-7.72,9,9,0,0,0-5.87-2.19,8.19,8.19,0,0,0-6.6,3.66c-2.93,4.41-3.66,11,1.84,15.41"/><path class="cls-1" d="M187,540.56A352.27,352.27,0,0,0,197.66,626l163.57-44a185.58,185.58,0,0,1,0-83.61l-163.57-44A362.84,362.84,0,0,0,187,540.56m30.45-.73a14.35,14.35,0,0,1,5.49-3.67A23.09,23.09,0,0,1,231,534c2.94-.37,5.87-.74,9.54-1.1,6.6-.37,13.93-.74,20.9-1.47,3.66-.37,7.33-1.1,11-1.84a27.14,27.14,0,0,1-7.7-10.27,21.05,21.05,0,0,1-1.1-13.57c1.46-6.6,3.67-10.27,9.91-14.3a24,24,0,0,1,12.82-3.66c8.44,0,16.51,4.76,19.82,11.73,3.29,6.23,3.29,11,.36,18.33a38.74,38.74,0,0,1-4,7.7c-.74,1.1-1.47,1.83-2.2,2.93a41.18,41.18,0,0,1,9.53,2.58,32.21,32.21,0,0,1,10.27,6.23,26,26,0,0,1,7.34,13.56c0,.38.36,1.11.36,1.48V553c0,.37.37,2.94.37,4v4.77a4,4,0,0,1-.73,2.94,4.21,4.21,0,0,1-2.94,1.1c-2.2,0-4.77.36-7,.36H315c-.73-.36-1.83-1.1-1.83-2.2V562.2a31.93,31.93,0,0,0-.37-8.43,15.28,15.28,0,0,0-7-9.54,27.61,27.61,0,0,0-10.64-3.3,49.32,49.32,0,0,0-15.77,1.47q-6,1.1-13.21,2.2c-1.46,0-2.56.36-4,.36h-.37c-1.47,0-3.3.36-4.77.36a70.66,70.66,0,0,1-9.17.74,80.07,80.07,0,0,0-13.57,2.2c-.73.36-1.46.36-1.83.73.37.73,1.1,1.1,1.83,1.83a35.93,35.93,0,0,0,6.24,4,43.13,43.13,0,0,0,13.2,4.76,130.89,130.89,0,0,0,14.67,2.2,53.67,53.67,0,0,0,7.7.37,51.49,51.49,0,0,0,7-.37h1.47a3.1,3.1,0,0,1,2.92,2.57v12.84A2.5,2.5,0,0,1,285,579.8h-1.47c-1.84,0-4-.37-6.24-.37a127,127,0,0,0-12.84.74,72.35,72.35,0,0,1-8.8.73h-.73a45.25,45.25,0,0,0-16.5,5.14,30.64,30.64,0,0,0-3.67,2.2c-2.93,2.19-3.67,4.76-2.93,8.07v1.1l.36,1.47-.36.73a3.43,3.43,0,0,1-2.56,1.46h-2.58a31.24,31.24,0,0,0-5.87.37h-.37c-2.56,0-2.92-1.83-3.29-2.93-1.84-7,0-13.21,5.13-18.34a25.26,25.26,0,0,1,7-4.76,47.44,47.44,0,0,1,13.92-4.78,1.34,1.34,0,0,0,1.1-.37,23.46,23.46,0,0,1-4.76-1.47,58.88,58.88,0,0,1-11.74-5.12,34.16,34.16,0,0,1-8.43-7.7,18,18,0,0,1-2.93-5.15c-2.94-3.66-2.21-7.69,1.1-11"/><path class="cls-1" d="M294.85,286.42,414.41,406a186.15,186.15,0,0,1,72.24-41.81l-44-163.56a358.47,358.47,0,0,0-147.79,85.82m149.26,5.13c-.37.36-.73.36-1.1.73l-16.5,9.54a61.92,61.92,0,0,0,11.74,12.46,102.94,102.94,0,0,0,19.07,13.58c1.1.73,2.2,1.1,3.3,1.83l.37.37c1.09.37,1.82,1.1,2.92,1.47l.74.36.37.74a2.77,2.77,0,0,1-1.11,3.29l-2.56,1.47c-1.46,1.1-3.3,1.83-4.76,2.93a6.14,6.14,0,0,1-4.42.37h-.36l-2.19-1.1a113.1,113.1,0,0,1-22.74-15.77,81.74,81.74,0,0,1-12.83-14.66l-10.64,6.22c.36.74.73,1.1.73,1.84a78.4,78.4,0,0,1,6.23,21.64A93,93,0,0,1,411.48,359a22.35,22.35,0,0,1-.37,5.13,4.47,4.47,0,0,1-2.21,3.67,32.31,32.31,0,0,0-4.76,2.94l-3.67,2.2-1.1-.37A2.1,2.1,0,0,1,397.9,370v-6.24a102.39,102.39,0,0,0-5.49-36.67c-.37-1.1-1.1-2.56-1.47-3.66l-.37-.37c-5.51,3.3-11,6.24-16.51,9.54-1.09.36-1.45.73-2.55,1.1-1.47,0-2.21-1.1-2.94-2.2l-4.41-6.61a5.76,5.76,0,0,1-1.1-2.2V322l.36-.74a4.92,4.92,0,0,1,2.21-1.83H366l16.14-9.16-.37-.37a53.65,53.65,0,0,0-10.63-9.17,163.57,163.57,0,0,0-28.62-15.4h-.37c-.73-.37-1.46-.37-2.19-1.1l-1.47-1.47,1.11-1.47c0-.36.36-.72,1.09-1.1l4.41-2.57c1.47-.73,2.57-1.46,4-2.2a4.74,4.74,0,0,1,4.4-.37c13.94,5.52,24.94,12.11,34.1,20.54,2.58,2.57,5.14,5.14,7.35,7.71a127.92,127.92,0,0,0,11.72-7,62.2,62.2,0,0,1-4-14.67,92.4,92.4,0,0,1-.73-26.77,21.2,21.2,0,0,1,.73-4.77v-.74c0-.73.37-1.47.37-2.19a6,6,0,0,1,2.57-4c1.82-1.1,4-2.2,5.87-3.3l2.93-1.47a1.37,1.37,0,0,1,1.1-.36h1.84l.72,1.47a7.74,7.74,0,0,1,0,2.93v.37a162.44,162.44,0,0,0-1.46,29.7,88,88,0,0,0,2.56,16.14c0,.37.37.73.37,1.1l16.14-9.16a2.73,2.73,0,0,1,1.47-.75,1.36,1.36,0,0,1,1.1-.36,2.7,2.7,0,0,1,2.56,1.47.36.36,0,0,0,.37.36l1.83,4a37.42,37.42,0,0,1,1.84,4c1.1,0,.73,1.47-.74,2.2"/><path class="cls-1" d="M200.6,443l163.56,44A186,186,0,0,1,406,414.77L286.42,294.85A357.51,357.51,0,0,0,200.6,443M316.13,368.2l.36-2.2,2.19.37c2.21.36,4.78.73,7,1.1,5.13,1.1,10.27,2.19,15.76,3.29l.74.37c1.46.36,2.93.73,4,1.1s2.57.73,2.94,2.93l.36,2.95a21.14,21.14,0,0,1,.74,4.76l.36,2.2-1.83.73a5,5,0,0,1-3.31,0h-.37c-5.13-1.1-9.9-2.2-14.67-2.93,1.47,7.7,2.94,15.4,4.77,23.1v.37c0,.37,0,.73.37.73,0,.37.37,1.84-.37,2.57a2.22,2.22,0,0,1-2.2,1.1h-1.1c-5.49-.73-10.27-1.1-15.4-1.83,1.47,6.59,2.93,13.21,4.76,19.43l.37,1.84a2.77,2.77,0,0,1-.37,2.57,3.14,3.14,0,0,1-2.2,1.1h-1.82c-5.14-.37-10.63-.37-15.77-.74v.37c0,.37.37,1.1.37,1.47.36,1.09.73,2.19,1.1,3.29l1.1,3.3,1.1,3.31c.36,1.46,1.1,3.3,1.47,4.76l2.55,7.34-2.92.73c-.74,0-1.84.36-3.67.36h-7.71l-.73-1.46c-.73-1.83-9.53-32.27-9.9-34.1l-.36-2.58h2.56c4.77,0,9.54,0,13.93.37h4.78c-1.47-7-2.94-13.93-4.41-21.27v-.37a3.54,3.54,0,0,1,.37-3.3,2.63,2.63,0,0,1,2.2-1.1h1.84c5.49.37,10.26,1.1,14.65,1.47-1.45-8.06-2.92-16.49-4.39-24.57v-.37c.74-.37.37-1.47.74-2.56m-4-24.57.73,1.1c0,.37.37.73.37,1.1l1.1,8.43a2.45,2.45,0,0,1-.73,2.58,2.22,2.22,0,0,1-2.2,1.09l-2.57-.36c-5.5-.73-10.64-1.47-15-2.2,1.1,10.26,2.57,20.16,4,28.6l.37,1.83-1.83.74a7.25,7.25,0,0,1-2.93.36H293c-5.5-.36-10.63-.73-15-1.1.37,2.57.74,5.14,1.11,7.33.73,5.14,1.83,10.27,2.57,15a2.81,2.81,0,0,0,.36,1.47l.37,2.2-1.1,1.1A4.51,4.51,0,0,1,278,414H260.75c1.47,7.71,3.3,15.41,5.13,23.11v.37a2.83,2.83,0,0,1-.37,3.3c-.73,1.1-2.19,1.47-4,1.47a7.32,7.32,0,0,0-2.94.36l-3.31.37h-.37c-1.83,0-2.92-.73-3.29-2.57a1.34,1.34,0,0,0-.37-1.1v-.73c-2.56-10.63-4.77-21.64-7-33,0-.74-.36-1.11-.36-1.84a3.5,3.5,0,0,1,2.56-3.29h1.84c5.86,0,11.37-.37,17.23-.37-1.46-8.08-2.56-15.78-3.29-22.74v-2.21a3.52,3.52,0,0,1,.73-2.57,3.16,3.16,0,0,1,2.2-1.1h2.2c4.77.37,9.89.37,15,.74l-3.3-27.5v-1.47l-.37-4h3.67q14.85,1.65,28.6,4.4Z"/><path class="cls-1" d="M751.8,428.34h0c12.1-6.59,23.47-13.57,35.21-20.17,7.69-4.4,15.77-8.8,23.47-13.57l.37-.37c-2.94-4.76-5.88-9.9-8.81-15h-.36l-28.61,17.6-28.6,17.59-.37.37h-.36l2.93,4.77c1.83,2.94,3.66,5.87,5.13,8.8"/><path class="cls-1" d="M880.51,443a354.13,354.13,0,0,0-85.43-148.16L675.52,414.41a185.93,185.93,0,0,1,41.8,72.24ZM715.12,399.37c-1.09-1.46-.72-2.93.74-4l1.46-1.1c1.47-1.1,2.57-1.84,4-2.94a3.89,3.89,0,0,1,2.2-.72,3.12,3.12,0,0,1,2.2,1.09,26.5,26.5,0,0,1,3.3,3.67c2.57,2.93,4.77,5.87,7.34,8.79l.37-.36c21.64-13.56,40.7-25.67,58.31-37a.36.36,0,0,0,.36-.37l-.36-.37c-.37-.74-.74-1.84-1.11-2.57l-1.1-2.94c-.74-1.47-1.1-3.29-1.83-4.76-.37-1.47-1.1-2.57-1.47-4a5.41,5.41,0,0,1-.73-2.57,3,3,0,0,1,1.47-3.66h.36c.37,0,.37-.37.74-.37l1.09-.73c1.47-.74,2.94-1.85,4.41-2.58a2.79,2.79,0,0,1,1.83-.73,2.89,2.89,0,0,1,2.57,1.83l1.1,2.21c1.09,2.19,1.83,4,2.93,5.86l.73,1.84c1.1,1.83,1.84,4,2.94,5.86,1.1,2.2,2.57,4.77,3.67,7a82.46,82.46,0,0,1,4,7.7,147.18,147.18,0,0,0,8.07,13.94,169.54,169.54,0,0,0,9.9,14.67c1.83,2.56,3.67,5.13,5.14,7l.36.74,2.21,3.31c.36.35.36.35.36.72l.74,1.84-1.47,1.1-.74.73c-2.2,1.1-4.77,2.57-7.33,3.67a3.3,3.3,0,0,1-1.84.37,2.66,2.66,0,0,1-2.57-1.47c-2.93-3.67-5.86-7.33-8.42-11-.74-1.1-1.84-2.2-2.57-3.3h-.37l-.37.37c-19.8,11-40,22.37-59.77,33.37l-.37.37v.37c1.46,2.93,2.56,6.23,3.66,8.79l.74,2.21c.36.73.36,1.1.73,1.83l.37,1.1c0,.37,0,.37.36.73a2.67,2.67,0,0,1-1.46,3.67c-2.21,1.1-4.77,2.57-7.33,3.67-.37.37-.74.37-1.47.37a2.61,2.61,0,0,1-2.57-1.83l-1.1-2.21-1.48-3.3c-.35-1.1-1.09-2.2-1.46-3.3A30,30,0,0,0,744.1,447l-.37-.73c-.37-.73-1.1-1.83-1.47-2.56a229.66,229.66,0,0,0-12.1-20.54l-.36-.37c-1.47-2.56-3.3-5.13-4.77-7.33l-1.84-2.93c-1.46-2.21-3.3-4.41-4.77-7a24.85,24.85,0,0,0-2.93-3.66L714,400.11c1.46,0,1.09-.37,1.09-.74"/><path class="cls-1" d="M414.78,675.16,295.23,794.71C336.66,835,388,864.39,443.38,880.52l44-163.56a184.92,184.92,0,0,1-72.6-41.8M461,767.93q-2.76,6.6-5.51,13.21l-9.54,22c-1.83,4.77-4,9.17-5.87,13.94-2.19,5.12-4.39,10.64-7,15.76a8.26,8.26,0,0,0-1.1,3.67c0,.74-.37,1.47,0,1.84a2,2,0,0,0,1.47,2.2l2.93.73-4.77,10.64h-1.46a13.25,13.25,0,0,1-11.74-11,12,12,0,0,1,0-5.13,3.38,3.38,0,0,1,.36-1.84,29.25,29.25,0,0,1-4.39,2.94,23.64,23.64,0,0,1-5.87,2.2,13.76,13.76,0,0,1-5.5,0c-2.94-.73-5.14-2.57-7-5.5a12.2,12.2,0,0,1-1.46-5.5v-5.14a29.56,29.56,0,0,1-8.44,3.68,5.51,5.51,0,0,1-2.56.36h-1.48c-4.4,0-7.7-2.2-9.53-6.6a13.21,13.21,0,0,1,0-11.73,99,99,0,0,1,4-9.18c2.57-5.13,5.5-10.63,8.81-16.13,3.66-6.61,7.7-13.57,12.09-22,1.1-2.2,2.57-4.41,3.67-6.62l1.1-1.82a68.07,68.07,0,0,0,4.41-9.17l1.1-3.3a8.69,8.69,0,0,0-3.31-9.9,26.71,26.71,0,0,0-4.4-2.57h-.37c-.36,0-.36-.37-.73-.37a2.76,2.76,0,0,1-1.47-.73.36.36,0,0,1-.36-.37,1.15,1.15,0,0,0-.37.74c-.37.36-.37.73-.73,1.1-.37.73-1.1,1.46-1.46,2.2l-1.1,1.83c-.37.36-.74,1.46-1.84,1.46h-.73a2.89,2.89,0,0,1-1.84-2.56v-.37c-1.1-5.5-2.56-11.73-4-18.33a2.68,2.68,0,0,1,.73-2.2,7.75,7.75,0,0,1,2.2-1.47c5.51-1.47,11.37-3.3,17.25-5.14h.36c.37,0,.74-.36,1.1-.36a2.79,2.79,0,0,1,1.83.36c.73.37,1.1,1.47.37,2.94l-3.3,5.5a.36.36,0,0,1,.37.37,53,53,0,0,1,6.6,4c2.93,2.2,5.49,4.4,7.32,7.69,2.21,3.3,2.94,7.34,2.57,12.11a39.74,39.74,0,0,1-2.93,11.36c-1.1,2.94-2.93,6.24-4.76,9.91-2.57,4.77-5.14,9.53-7,13.2-1.83,3.3-3.31,6.59-5.14,9.9v.37c-.73,1.47-1.83,3.3-2.57,4.77q-6.6,12.65-13.2,25.3a27.51,27.51,0,0,0,11-6.23,45.45,45.45,0,0,0,8.08-9.91c2.93-4.4,5.13-9.16,7.33-13.2,2.57-4.77,5.13-9.9,7.33-14.67,2.57-4.76,4.77-9.53,7.34-13.93l1.1-2.21.36-.73c.37-.37.37-1.1.74-1.47.73-1.46,1.46-1.83,2.57-1.83.73,0,1.1.37,1.46.37,2.57,1.46,4.77,2.56,7,4,2.21,1.1,1.84,2.57,1.11,4-1.84,3.31-3.3,7-5.13,10.28l-6.61,13.57c-2.19,4.76-4.4,9.16-7,13.93-4.77,9.9-9.53,19.8-14.66,30.06a37.56,37.56,0,0,0,5.5-2.55,32.4,32.4,0,0,0,9.53-9.18,70.52,70.52,0,0,0,6.6-11c4.77-9.9,9.53-20.53,14.3-30.44l1.1-2.2c1.1-2.2,1.84-4,2.94-6.23l.73-1.83a1.24,1.24,0,0,1,.38-.73,2.27,2.27,0,0,1,2.19-1.47,1.34,1.34,0,0,1,1.1.37c.37,0,.74.36,1.1.36a34.93,34.93,0,0,1,6.24,3.67c.37,0,.37.37.73.37l1.09,1.1-.73,1.83a15.06,15.06,0,0,0-.72,2.56"/><path class="cls-1" d="M894.08,540.56a351.84,351.84,0,0,0-10.63-85.45l-163.55,44a185.62,185.62,0,0,1,0,83.62l163.55,44a362.26,362.26,0,0,0,10.63-86.18m-62.7,42.54a21.2,21.2,0,0,1-16.14,8.8h-2.56c-6.24,0-12.11-2.2-17.61-6.23-7.33-5.5-12.47-12.84-16.13-22.37a56.92,56.92,0,0,1-3.67-25.67,59.76,59.76,0,0,1,2.93-13.94,120,120,0,0,1,8.08-18.34c.73-1.1,1.1-2.2,1.83-3.3.73-1.46,1.83-3.29,2.57-4.76a5.27,5.27,0,0,1,4.76-2.94H802a3,3,0,0,1,2.93,1.47c.37.37.73,1.47,0,2.94s-1.47,2.56-2.19,4l-2.21,4c-3.66,7.34-6.6,13.57-8.07,19.43-1.82,5.88-2.92,11-2.92,15.78a40.17,40.17,0,0,0,2.92,16.87,24.85,24.85,0,0,1,21.28-8.07c12.09,1.1,19.07,9.17,21.27,16.5a26.42,26.42,0,0,1-3.67,15.77m32.27-17.6c-1.47,6.23-4,12.48-7.33,20.17a42.71,42.71,0,0,1-2.93,5.86l-2.21,4.4a4.42,4.42,0,0,1-3.67,2.57h-.73c-1.83-.36-3.66-.36-5.5-.73l-3.67-.37-.37-1.47a3.48,3.48,0,0,1,.74-3.66v-.37a108.93,108.93,0,0,0,5.87-12.83,116.94,116.94,0,0,0,6.59-20.17c1.1-5.87,2.21-11.74,1.84-18a59.78,59.78,0,0,0-2.94-16.51,25,25,0,0,1-14.29,9.18,31.73,31.73,0,0,1-5.88.73c-10.63,0-19.42-6.24-22.37-15.77A21.34,21.34,0,0,1,809,501a25.59,25.59,0,0,1,17.6-12.1c8.08-1.84,15,0,20.53,5.13,4.77,4.77,8.82,9.53,11.38,15a76.84,76.84,0,0,1,5.87,16.87,97.53,97.53,0,0,1,2.2,20.17c0,5.87-1.1,12.1-2.94,19.44"/><path class="cls-1" d="M810.48,561.83h0a14,14,0,0,0-8.06,2.57,7.63,7.63,0,0,0-2.94,5.86c0,5.15,5.13,9.17,11,9.54h.73c5.5,0,10.27-3.66,10.27-8.81,0-4.76-5.14-9.16-11-9.16"/><path class="cls-1" d="M831.38,501.32h-.73c-6.23.36-11,5.13-11,11,0,5.15,4.41,9.55,10.27,9.55h.37c5.86,0,11-5.13,11-10.64a8.84,8.84,0,0,0-2.57-6.6,9.07,9.07,0,0,0-7.33-3.3"/><path class="cls-1" d="M455.11,197.67l44,163.56a189.1,189.1,0,0,1,83.62,0l44-163.56a357.45,357.45,0,0,0-171.64,0M541.29,260c.37-2.56,1.1-5.13,1.47-7.7a69.61,69.61,0,0,1,4.4-13.94,40.76,40.76,0,0,1,7-11c4.41-4.4,8.8-7.7,16.14-9.17.73,0,2.19-.37,2.92-.37a16.43,16.43,0,0,1,4.42.37c8.43,1.84,14.29,7,16.85,15a35.25,35.25,0,0,1,.74,21.27,56,56,0,0,1-2.56,7,4.68,4.68,0,0,1-3.3,2.56h-7.7a3.35,3.35,0,0,1-2.57-1.1c-.36-.36-.73-1.1-.36-2.57a35.74,35.74,0,0,0,2.2-8.42,56.36,56.36,0,0,0,.73-7.34,11.86,11.86,0,0,0-2.2-6.61,7.6,7.6,0,0,0-9.54-2.92,20.16,20.16,0,0,0-5.14,3.29,26.42,26.42,0,0,0-4,6.24A88.1,88.1,0,0,0,556,258.55c-1.47,6.59-3.3,14.3-4.41,21.64-.74,5.12-1.47,10.63-1.84,15-.36,5.14-.72,10.63-1.09,15.77l-.37,5.13c0,1.47-.36,3.3-.36,4.77v4a2.7,2.7,0,0,1-2.94,2.93H536.9a2.7,2.7,0,0,1-2.94-2.93v-1.46c0-2.2-.36-4.4-.36-6.6v-.74c-.37-5.5-.74-10.27-1.1-15a241.9,241.9,0,0,0-4.78-32.28c-.36-1.46-.73-3.3-1.09-4.77v-.36c-.74-3.31-1.47-6.23-2.2-9.17a96.29,96.29,0,0,0-3.31-9.54c-1.46-2.93-2.56-5.13-4.4-6.6a13.13,13.13,0,0,0-6.23-4,6.27,6.27,0,0,0-7,2.21,10.75,10.75,0,0,0-3.3,8.06,39,39,0,0,0,1.47,10.64c.36,1.47.73,2.57,1.1,4l.73,2.57-.36.74a2.76,2.76,0,0,1-2.57,1.83h-7.7a3.2,3.2,0,0,1-3.3-2.2,54.43,54.43,0,0,1-3.67-11.73,44.38,44.38,0,0,1,0-9.91,42.14,42.14,0,0,1,1.47-6.59c2.57-8.08,8.43-13.21,16.87-15a11.19,11.19,0,0,1,3.67-.37,10.1,10.1,0,0,1,3.66.37c3.31.36,6.6,1.83,10.27,4A34.48,34.48,0,0,1,534,237.64a62.8,62.8,0,0,1,4,11.74q1.63,7.16,3.29,14.3v.73c0-.73.37-1.47.37-2.2Z"/><path class="cls-1" d="M644.45,312.92a22.2,22.2,0,0,0-2.2,16.87,22.45,22.45,0,0,0,10.26,13.57,19.41,19.41,0,0,0,11.74,2.93,21.93,21.93,0,0,0,18.34-11,22.21,22.21,0,0,0-8.07-30.07,23.56,23.56,0,0,0-11-2.93h-.74a20.8,20.8,0,0,0-18.33,10.63"/><path class="cls-1" d="M594.11,364.16A186,186,0,0,1,666.35,406L785.9,286.42A350.51,350.51,0,0,0,637.75,201Zm55-119.55a1.34,1.34,0,0,0,.37-1.1c1.1-2.2,2.57-4,3.67-6.24a3,3,0,0,1,2.93-1.82,16.16,16.16,0,0,1,1.84.36,23.46,23.46,0,0,1,2.93,1.46,35.74,35.74,0,0,1,5.5,4.41,18,18,0,0,1,4.77,9.89,56.13,56.13,0,0,1,.73,8.07c0,2.57-.37,5.14-.37,8.08l-.36,2.55c0,1.47-.36,2.57-.36,4a32.28,32.28,0,0,0,1.09,8.81,34.43,34.43,0,0,0,1.83,3.66,5,5,0,0,0,2.57,2.21,30.8,30.8,0,0,1,12.84,7.69c.37.37.37.37.74.37A20.41,20.41,0,0,0,699,296a26.1,26.1,0,0,0,7-3.67l1.83-1.46c1.84-1.1,3.67-2.57,5.51-3.67a53,53,0,0,1,6.23-3.67,28.09,28.09,0,0,1,7.32-2.2,18.51,18.51,0,0,1,11.74,1.47c1.11.73,2.94,1.1,4,2.2a7.5,7.5,0,0,1,2.57,2.2l1.47,1.47-6.24,10.63H739a5.37,5.37,0,0,1-2.92-1.1h-.37a19.56,19.56,0,0,0-4-1.84,9.56,9.56,0,0,0-5.51.37,27.05,27.05,0,0,0-4.39,2.57,20.81,20.81,0,0,0-2.94,2.21c-4.39,3.66-9.89,6.23-16.13,8.43-1.1.37-2.57.73-4,1.1h-.73c3.3,9.16,3.3,18-.37,26.76a36.54,36.54,0,0,1-33.37,23.48h-1.1a44.67,44.67,0,0,1-7.33-.74,37.49,37.49,0,0,1-24.94-17.6,36.92,36.92,0,0,1-3.31-30.43c5.51-14.31,15.41-22.37,30.08-24.94a38.47,38.47,0,0,1-1.83-7c-.74-6.25-1.11-11.74,0-16.51a32.22,32.22,0,0,0,.36-6.23c0-4-1.83-7-5.87-9.18h-.37a8.11,8.11,0,0,1-2.19-1.46l-1.1-1.1Z"/><path class="cls-1" d="M406,666.34a185.9,185.9,0,0,1-41.82-72.24l-163.56,44a354.48,354.48,0,0,0,85.45,148.17Zm-131.3,33.74c-2.19,1.11-4.39,2.57-6.6,3.67a3.9,3.9,0,0,1-2.2.74c-1.46,0-2.2-1.47-2.93-1.84a8.52,8.52,0,0,0-1.1-1.83l-.74-1.47a21.4,21.4,0,0,0-1.46-2.56c-1.1-1.83-1.84-3.3-2.94-5.13l-.37-.74c-2.2-3.67-4-7-6.22-10.64-2.57-4.39-5.14-9.16-7.71-13.56l-2.2-3.67-1.1-2.2a3,3,0,0,1,1.1-4c.73-.37,1.1-.73,1.83-1.1l4-2.56c11-6.6,22.37-13.21,33.37-19.81l.37-.36a21.5,21.5,0,0,1,2.93-1.47l.73-.36.74.36c1.46.74,1.83,1.83,2.57,2.93,0,.37.36.37.36.73a27.21,27.21,0,0,1,2.57,4.41q1.65,2.74-1.1,4.4c-1.47,1.1-3.3,1.83-4.77,2.93l-18,10.63c4.41,1.11,8.44,2.21,12.83,3.31l27.88,7a27,27,0,0,1,5.14,1.46l6.6-25.3,1.46-.37h1.1c2.93.74,5.5,1.47,8.07,2.2,1.83.37,2.93,1.84,2.2,4-1.11,4.4-2.2,9.16-3.67,13.56l-2.57,9.18h.37l15.77,4c6.6,1.46,12.84,3.3,19.44,4.76l1.1.37c1.09.37,2.2.37,2.93,1.47s.37,2.2,0,3.3l-.37,1.1c-.36,1.09-.36,1.83-.73,2.94v.73a15.52,15.52,0,0,1-.37,1.83c-.37,1.1-.72,2.94-2.92,2.94H359l-6.24-1.47-20.53-5.14c-2.21-.74-4.77-1.11-7-1.83l-2.93-.73c-.74,2.2-1.11,4.4-1.84,6.6l-3.66,14.67c0,.36,0,.73-.37.73l-.36,1.1-.37.37c-.73.36-1.1.72-1.83.72h-1.84c-2.57-.72-4.77-1.09-7-1.82-1.83-.37-2.57-1.84-2.2-4,.73-2.2,1.1-4.77,1.83-7l3.67-14.68c-6.6-1.83-13.56-3.3-20.17-5.13l-26-6.6,3.31,5.86c1.46,2.94,3.3,5.51,4.77,8.44s3.3,5.51,4.76,8.44l.73,1.47c1.47,1.47.73,2.93-1.1,4"/><path class="cls-1" d="M455.11,883.46a356.23,356.23,0,0,0,171.28,0l-44-163.56a189.4,189.4,0,0,1-83.62,0ZM587.5,801.67v.73c.37,2.57,1.11,5.51,1.47,8.07,0,.74.37,1.47-.36,2.21a2.39,2.39,0,0,1-1.84.73H567a38.9,38.9,0,0,1,5.13,5.87c2.56,3.29,4.4,8.43,5.13,13.57a24.81,24.81,0,0,1-2.93,15.4c-2.93,4.77-7.7,8.43-13.57,11a53.46,53.46,0,0,1-20.17,4,33.2,33.2,0,0,1-5.86-.37,49.85,49.85,0,0,1-16.88-4.77,28.49,28.49,0,0,1-11.37-10.27,21.55,21.55,0,0,1-2.56-15.77A28.66,28.66,0,0,1,509,820.38a39.53,39.53,0,0,1,5.14-5.87H495.82l-.37-.73v.73h-.73c-.37,0-1.46,0-1.83-.73-.73-.74-.36-1.47-.36-2.21v-.36l1.82-8.81c.37-1.83.74-2.93,2.2-2.2,1.1.74,2.57,0,4,0,9.16,0,18-.36,27.13-.36h2.57l.73.73a4.61,4.61,0,0,1,.37,2.2v.37a24,24,0,0,1-.37,5.13v1.47a21.31,21.31,0,0,1-.36,4.77,3.29,3.29,0,0,1-1.84,2.94l-3.29,2.2a17.59,17.59,0,0,0-4.77,5.86,14.14,14.14,0,0,0-1.1,13.21,15.13,15.13,0,0,0,6.6,7A29.33,29.33,0,0,0,538,849a30.88,30.88,0,0,0,14.29-2.2,23,23,0,0,0,7.72-5.5,14.87,14.87,0,0,0,3.29-9.17,13.17,13.17,0,0,0-3.29-8.8,26.87,26.87,0,0,0-5.88-5.13c-.37-.37-.74-.37-1.1-.73l-1.47-.74V816c-.37-2.57-.73-13.94-.73-15.41v-1.1H556c9.54,0,18.7,0,28.24-.37h1.1c1.47-.37,1.84,1.1,2.2,2.57m-86.91-26.4h1.1c5.49,0,10.64,0,15-.36h8.44c1.84-.37,5.86-.37,17.24-.37h37.78c2.2,0,2.56,1.47,2.56,2.92l1.46,8.08c.37,1.47.37,2.2-.36,2.93a2.37,2.37,0,0,1-1.83.73H535.43c-4.41,0-8.43,0-12.84.37h-24.2a1.47,1.47,0,0,1-1.47-.73,4,4,0,0,1-.37-1.83c.37-2.57,1.1-4.78,1.47-7.34,0-.74.37-1.47.37-2.21v-.36a5,5,0,0,1,2.2-1.83"/><path class="cls-1" d="M659,797.28a8.93,8.93,0,0,0-1.47-4c-1.83-3.3-3.67-6.59-5.5-9.91l-2.57-4.4c-1.09-2.2-2.2-4-3.3-6.23l-.37-.36c-1.1-1.84-2.2-4-3.3-5.87a21.71,21.71,0,0,0-.37,8.44c.74,11.74,4.41,21.63,11,30.06a20.55,20.55,0,0,1,2.57,3.3c.37.38,1.1.75,1.47,1.1.36,0,.73.37,1.1-.35a2.87,2.87,0,0,0,.73-1.85,13.63,13.63,0,0,0,.37-4,8.05,8.05,0,0,0-.37-3.3c.37-.74,0-1.47,0-2.56"/><path class="cls-1" d="M666.35,675.15A185.88,185.88,0,0,1,594.11,717l44,163.56a351.3,351.3,0,0,0,148.17-85.81ZM739,805.34a11.17,11.17,0,0,1-8.43,0,18.29,18.29,0,0,1-5.13-2.93l-1.11-1.1c0,1.46.37,3.3,0,4.77a17.59,17.59,0,0,1-1.1,6.59,15.23,15.23,0,0,1-2.93,4.78,10.26,10.26,0,0,1-7.33,2.93h-.37a12.81,12.81,0,0,1-5.13-1.1,20.11,20.11,0,0,1-4.77-2.94,33.11,33.11,0,0,1-1.47,10.27c-.73,1.47-1.1,2.94-2.2,4a9.24,9.24,0,0,1-7.7,3.66,14.72,14.72,0,0,1-9.54-3.66,14.23,14.23,0,0,1-2.93-3.67,101,101,0,0,1-6.24-10.64c0-.37-.36-.73-.36-1.1l-1.11,4.41c-1.09,2.19-2.92,5.13-5.86,5.86a10.06,10.06,0,0,1-3.3.37,21.33,21.33,0,0,1-5.13-.74,17.23,17.23,0,0,1-6.61-4.4,51.35,51.35,0,0,1-12.47-17.6,89.4,89.4,0,0,1-7-27.5c-.37-2.93,0-7.34,0-10.64a52.81,52.81,0,0,1,3.3-13.2v-.36a7.89,7.89,0,0,0-5.51-3.68,5.29,5.29,0,0,0-2.55.37h-.74a2.28,2.28,0,0,1-2.2-1.47l-4-7.7a4.71,4.71,0,0,1-.36-2.2,2.85,2.85,0,0,1,1.47-1.47,17.66,17.66,0,0,1,18,2.21,10.38,10.38,0,0,0,2.21,1.83c1.84-5.5,5.87-8.43,12.1-9.16,1.47-.37,2.57.36,3.67,1.83,1.1,1.83,2.2,3.29,3.3,5.13l1.47,2.57-.38.73a2.3,2.3,0,0,1-2.19,1.83h-.73A23.08,23.08,0,0,1,655,743l-2.2,1.09c-1.84,1.47-2.2,3.3-1.47,6.25a35.56,35.56,0,0,0,1.84,4,60.88,60.88,0,0,1,5.5,9.16l.37.37c.72,1.1,1.09,1.83,1.83,2.93,4,6.61,7.71,13.21,11.73,19.81l9.53,16.13a66.87,66.87,0,0,1,4,7l4,7a24,24,0,0,0,0-10.27,84,84,0,0,0-3.3-10.63c-2.2-4.41-4.78-8.8-7-12.84l-.73-1.47-11-18.7-4.4-7.7c-1.1-1.83-2.21-3.66-2.94-5.13l-1.11-2.21c-1.09-1.47-.72-2.94.73-4,2.22-1.46,4.78-3.29,7-4.76l.37-.36a2.74,2.74,0,0,1,3.66.73c1.1,1.83,2.57,3.67,3.67,5.49l37.05,57.95c0-.36.36-.73.36-1.46a23.52,23.52,0,0,0-1.46-13.21,63.68,63.68,0,0,0-5.51-11.37c-4.4-7.7-9.54-15-14.3-22.37l-1.83-2.56c-2.2-3.31-4.77-7-7-10.27l-3.29-5.14a1.88,1.88,0,0,1-.74-1.46c-.36-.74-1.47-2.57.74-4,2.56-1.47,4.77-2.93,7.33-4.41a2.78,2.78,0,0,1,1.47-.74,2.47,2.47,0,0,1,2.2,1.48c.37.37.74.74.74,1.1l.36.37c13.19,18.69,26.4,37.76,39.61,56.47a12.48,12.48,0,0,0,2.93,3.29c.37.37,1.1.74,1.47,1.11a2.36,2.36,0,0,0,2.19,0,8,8,0,0,1,1.84-1.11h1.1l.73.37.37.37v.37c1.1,1.83,2.57,3.3,3.67,5.14s.73,2.94-.37,4c-2.2,4.77-3.67,5.87-5.87,6.6"/><path class="cls-1" d="M783.34,638.11a10.35,10.35,0,0,0-5.5-1.47,10.72,10.72,0,0,0-9.9,5.87,12.14,12.14,0,0,0-1.1,8.81,11.61,11.61,0,0,0,5.5,7,10.77,10.77,0,0,0,5.87,1.47,11.58,11.58,0,0,0,9.9-5.86c3.3-7-.74-13.21-4.77-15.78"/><path class="cls-1" d="M880.51,638.11,717,594.1a186.11,186.11,0,0,1-41.81,72.25L794.71,785.91a353.68,353.68,0,0,0,85.8-147.8m-99,83.61a73.9,73.9,0,0,1-13.93-12.83A152.7,152.7,0,0,1,754.37,692c-2.94-4-5.14-7.7-8.07-11a37.56,37.56,0,0,0-7-6.6,10.83,10.83,0,0,0-9.9-1.47c-2.57.74-4,2.57-5.14,4.76a17.9,17.9,0,0,0-1.1,6.61v7a4.89,4.89,0,0,1-1.1,3.3l-1.1,1.47-1.47-.74a1.35,1.35,0,0,0-1.1-.36l-2.56-1.47c-1.83-1.1-3.3-1.83-5.13-2.94a4.43,4.43,0,0,1-2.57-4.4v-1.47a50.82,50.82,0,0,1,1.1-9.16c1.47-7,4.77-12.11,10.26-15.77a25.69,25.69,0,0,1,21.27-2.94c4.77,1.47,9.18,4.4,13.58,8.81,4,4,7.33,8.8,10.26,12.83l2.57,3.67a72.06,72.06,0,0,0,6.24,8.43,128.06,128.06,0,0,0,13.2,14.3,34.92,34.92,0,0,0,8.8,5.5,15.29,15.29,0,0,0,5.51,1.47,10.87,10.87,0,0,0,8.06-2.2c3.3-2.56,5.86-5.5,7-8.8,1.47-4.76.37-9.53-3.3-13.57a19.28,19.28,0,0,0-5.14-4A56.23,56.23,0,0,0,791.77,677c-2.2-.37-4-.74-6.23-1.1h-.37c-1.1-.37-2.2-.37-3.3-.74a59.35,59.35,0,0,1-9.53-2.56,7.47,7.47,0,0,1-2.94-1.47l-.36-.37c-.37,0-.37-.37-.74-.37-8.44-4.4-13.2-11.37-13.93-20.53a25.44,25.44,0,0,1,6.23-18.34,24.67,24.67,0,0,1,18.34-7.7,23.75,23.75,0,0,1,7.33,1.1,24.05,24.05,0,0,1,14.31,12.46,24.71,24.71,0,0,1,1.1,19.07,19.09,19.09,0,0,1-4,7,66,66,0,0,1,14.3,4.41c6.24,2.56,10.64,5.87,13.94,10.26a20.86,20.86,0,0,1,4.4,8.44c2.2,7.34,2.2,14.3-.37,20.9a28.06,28.06,0,0,1-16.5,17.6A30.33,30.33,0,0,1,801,727.59a26.49,26.49,0,0,1-9.18-1.47c-3.67-.36-7-2.2-10.27-4.4"/><text class="cls-3" transform="matrix(0.67, 0.75, -0.75, 0.67, 166.7, 846.8)"> </text><text class="cls-4" transform="translate(693.96 998.89) rotate(-20.9)"> </text><path class="cls-1" d="M139.76,266.63l20.82-24.15,61.66,24.09.18-.2-32.81-57.55,20.74-24,72.45,62.47-13.77,16-55.56-47.92-.18.21,39.15,66.95-10.5,12.17L170.58,265l-.17.21L226,313.14l-13.77,16Z"/><path class="cls-1" d="M241.59,160.54l53.61-36.75,11,16L270,164.67l10.09,14.71,34.21-23.45,11,16-34.21,23.46,11,16,38.23-26.21,11,16-55.62,38.12Z"/><path class="cls-1" d="M328.2,103.88l30.05-10.66,41.63,51.46.25-.09V78.35l29.93-10.62,32,90.16-19.87,7.05L417.66,95.79l-.26.09.85,77.55-15.15,5.38-47.33-61.06-.25.09L380.05,187l-19.86,7Z"/><path class="cls-1" d="M468.74,62.33l35.57-2.77a90.23,90.23,0,0,1,12.53-.09,34.24,34.24,0,0,1,11.52,2.63A21.65,21.65,0,0,1,537,68.81q3.47,4.48,4.07,12.29a20.08,20.08,0,0,1-3.47,13.76,24.87,24.87,0,0,1-11.33,8.53l0,.27a27.25,27.25,0,0,1,8.76,2,22.85,22.85,0,0,1,7,4.47,21.45,21.45,0,0,1,4.79,6.74,24.75,24.75,0,0,1,2.15,8.51,23,23,0,0,1-2.25,12.84A25.54,25.54,0,0,1,539,147a36.91,36.91,0,0,1-11.17,5.34,62.06,62.06,0,0,1-12.63,2.34l-39.07,3Zm24,36.49,15.22-1.18a21.71,21.71,0,0,0,4.74-.91,13.17,13.17,0,0,0,4.11-2.09,9.18,9.18,0,0,0,2.78-3.46,9.69,9.69,0,0,0,.77-4.94,8.84,8.84,0,0,0-1.66-4.82,9.13,9.13,0,0,0-3.54-2.78,15.81,15.81,0,0,0-4.7-1.19,27.31,27.31,0,0,0-5-.08l-14.28,1.11Zm3.07,39.47,18.86-1.47a22.82,22.82,0,0,0,4.87-.92,13,13,0,0,0,4.37-2.23,10.84,10.84,0,0,0,3-3.76,10.16,10.16,0,0,0,.87-5.35,8.5,8.5,0,0,0-2.11-5.33,10.82,10.82,0,0,0-4.49-2.84,22.2,22.2,0,0,0-5.64-1,40.79,40.79,0,0,0-5.55,0l-15.9,1.23Z"/><path class="cls-1" d="M571.92,58.12l64.44,8.44-2.53,19.3-43.54-5.71L588,97.83l41.13,5.4-2.53,19.29-41.13-5.39-2.52,19.29,46,6-2.53,19.29L559.49,153Z"/><path class="cls-1" d="M670.46,74.59,705.33,87a65.45,65.45,0,0,1,12.57,6,33,33,0,0,1,9.23,8.31,23.57,23.57,0,0,1,4.39,11q.86,6.27-2,14.15-3.4,9.56-10.75,14.46t-17.53,3.29l9.34,46.22L686.82,182l-6-42.74-9.8-3.49-12.84,36-19.86-7.08ZM677,119l11.71,4.17q2.67,1,5.73,1.83a19,19,0,0,0,5.82.79,10,10,0,0,0,5.07-1.57A9.59,9.59,0,0,0,709,119a10.14,10.14,0,0,0,.55-6,10,10,0,0,0-2.45-4.39,17,17,0,0,0-4.45-3.23,41.86,41.86,0,0,0-5.33-2.33l-13-4.63Z"/><text class="cls-5" transform="matrix(0.88, 0.48, -0.48, 0.88, 707.51, 191.03)"> </text><path class="cls-1" d="M774.94,171a54,54,0,0,1,16.14-13.69,45.5,45.5,0,0,1,18.36-5.52,47.36,47.36,0,0,1,19,2.53,62.59,62.59,0,0,1,32,26.12,47.49,47.49,0,0,1,6.32,18.14,45.59,45.59,0,0,1-1.71,19.09,58.13,58.13,0,0,1-26.3,32.26,45.68,45.68,0,0,1-18.36,5.51,47.19,47.19,0,0,1-19-2.53,62.59,62.59,0,0,1-32-26.12,47.32,47.32,0,0,1-6.32-18.14,45.6,45.6,0,0,1,1.71-19.09A54,54,0,0,1,774.94,171Zm17,13.83a35,35,0,0,0-6.19,10.91A28.3,28.3,0,0,0,784.23,207,27.52,27.52,0,0,0,787.46,218a33.71,33.71,0,0,0,18.95,15.45,27.42,27.42,0,0,0,11.34,1,28.37,28.37,0,0,0,10.8-3.74,37.37,37.37,0,0,0,15.59-19.11,28.54,28.54,0,0,0,1.53-11.4,27.43,27.43,0,0,0-3.23-10.9,33.67,33.67,0,0,0-19-15.46,27.43,27.43,0,0,0-11.34-1,28.19,28.19,0,0,0-10.85,3.79A35.32,35.32,0,0,0,791.91,184.79Z"/><path class="cls-1" d="M906,224.35l39,51-15.46,11.81-26.17-34.24-15.46,11.81,24.21,31.67L896.6,308.21l-24.21-31.67-29.63,22.65L830,282.44Z"/><path class="cls-1" d="M140.53,587.82l-4-29.05,15.26-2.1,10.36,75-15.26,2.11-4-29.05-79.51,11L61,598.8Z"/><path class="cls-1" d="M165.15,644l6.16,15.87L135.8,673.7,152,715.39l35.51-13.8,6.17,15.87-89.17,34.65-6.16-15.87L137.64,721l-16.2-41.69L82.15,694.55,76,678.68Z"/><path class="cls-1" d="M203.24,733.4,239,785.73l-12.72,8.69-26.15-38.27-19.41,13.26,24.77,36.26-12.71,8.69L168,778.1l-21.42,14.64L174.1,833l-12.72,8.69-37.12-54.33Z"/><path class="cls-1" d="M267.19,819.6,288,835.17l-19.8,68.94L329,866l20.54,15.41-57.42,76.52-13-9.73,47.69-63.55-.22-.16-70.92,46.11-9.51-7.14,24.45-81-.22-.16-47.68,63.54-13-9.73Z"/><path class="cls-1" d="M385.52,895.59l13.6,5.65,1.38,104.16-18-7.47.15-23.63-38.31-15.91L328,975.29,310.4,968Zm-2.73,62.95L384.11,917l-28.77,30.19Z"/><path class="cls-1" d="M504,1017q-19,6.4-40.6,2.8a55.75,55.75,0,0,1-19.47-6.88A45.54,45.54,0,0,1,422.11,983a53.13,53.13,0,0,1-.37-20.75,55.39,55.39,0,0,1,7.17-20,46.81,46.81,0,0,1,13-14.07,46.11,46.11,0,0,1,17.41-7.43,55.81,55.81,0,0,1,20.65-.18,77.5,77.5,0,0,1,19.82,6,42.4,42.4,0,0,1,15.38,12.09l-14.49,10.46a31.48,31.48,0,0,0-9.86-8.63,39.63,39.63,0,0,0-13.26-4.69,33.32,33.32,0,0,0-13.7.39,30.68,30.68,0,0,0-11.39,5.49,32.94,32.94,0,0,0-8.39,9.63,37.25,37.25,0,0,0-4.54,12.8,41.08,41.08,0,0,0,0,14.38,33.38,33.38,0,0,0,4.75,12.17,31.24,31.24,0,0,0,9,9,32.32,32.32,0,0,0,12.82,4.88,58.33,58.33,0,0,0,12.26.82,34.77,34.77,0,0,0,10.69-2l3.71-22.26-19.32-3.23,2.54-15.19,36.12,6Z"/><path class="cls-1" d="M531,927.9l17-.28,1.56,95.65-17,.28Z"/><path class="cls-1" d="M633.29,940.77q-6.07-4.82-11.24-5.92a27.38,27.38,0,0,0-10.1-.36,33.23,33.23,0,0,0-12.89,4.66,30.91,30.91,0,0,0-9.1,8.79,33.26,33.26,0,0,0-5,11.77,37.39,37.39,0,0,0-.29,13.58,41,41,0,0,0,4.5,13.66A33.15,33.15,0,0,0,597.54,997a31.06,31.06,0,0,0,11.35,5.77,32.51,32.51,0,0,0,13.7.62,24.79,24.79,0,0,0,10.73-4.46,30.9,30.9,0,0,0,8.73-10.3l15.41,7.73a38.13,38.13,0,0,1-13.64,15.23,49.23,49.23,0,0,1-19,7,56,56,0,0,1-20.64-.43,45.66,45.66,0,0,1-30-21.54,53.07,53.07,0,0,1-6.86-19.59,55.51,55.51,0,0,1,.56-21.21,46.75,46.75,0,0,1,7.9-17.42,46.06,46.06,0,0,1,14.2-12.52,56,56,0,0,1,19.55-6.64,46.75,46.75,0,0,1,18.36.65,42.18,42.18,0,0,1,17.07,9.19Z"/><path class="cls-1" d="M754,891.49q-7.28-2.64-12.53-2.07a27.57,27.57,0,0,0-9.7,2.85A33.21,33.21,0,0,0,721,900.75,30.83,30.83,0,0,0,715.16,912a33,33,0,0,0-1,12.73,37.38,37.38,0,0,0,4,13,41.13,41.13,0,0,0,8.58,11.54,33.35,33.35,0,0,0,11.07,6.92A31.07,31.07,0,0,0,750.43,958a32.39,32.39,0,0,0,13.2-3.74,24.73,24.73,0,0,0,8.77-7.62,30.69,30.69,0,0,0,5-12.53l17.07,2.48a38.32,38.32,0,0,1-8.14,18.76,49.29,49.29,0,0,1-15.82,12.68,56.11,56.11,0,0,1-19.72,6.1,45.56,45.56,0,0,1-35.32-10.95,53.26,53.26,0,0,1-12.69-16.42,55.62,55.62,0,0,1-6.17-20.3,47,47,0,0,1,2-19,46.06,46.06,0,0,1,9.53-16.36,55.87,55.87,0,0,1,16.45-12.47,46.6,46.6,0,0,1,17.62-5.18,42.28,42.28,0,0,1,19.11,3.33Z"/><path class="cls-1" d="M762.7,857.78l13.72-10.09,56.68,77.07-13.72,10.09Z"/><path class="cls-1" d="M793.23,835.58,816.62,812a67.89,67.89,0,0,1,10.27-8.56,34.25,34.25,0,0,1,11.16-5,22.9,22.9,0,0,1,11.56.23q5.83,1.59,11.6,7.29,7.39,7.32,8.34,16.35t-5.49,17.65L912,851.6l-14.44,14.6-44.4-12.77-8.75,8.84,28.81,28.51-12,12.1Zm50.11,7q2.56-2.6,4.89-5.42a22.17,22.17,0,0,0,3.55-5.9,11.4,11.4,0,0,0,.69-6.26,12.5,12.5,0,0,0-3.91-6.52,11.68,11.68,0,0,0-6-3.51,11,11,0,0,0-6,.56,21.13,21.13,0,0,0-5.62,3.27,60.91,60.91,0,0,0-5,4.47l-10.36,10.47L834,852Z"/><path class="cls-1" d="M904,732q-7.61,1.46-11.83,4.63a27.59,27.59,0,0,0-6.87,7.42,33.15,33.15,0,0,0-4.9,12.79,30.79,30.79,0,0,0,.7,12.63,33.07,33.07,0,0,0,5.68,11.44,37.16,37.16,0,0,0,10.08,9.1,41.15,41.15,0,0,0,13.28,5.53,33.31,33.31,0,0,0,13.06.27A30.8,30.8,0,0,0,934.94,791a32.22,32.22,0,0,0,9.42-10A24.62,24.62,0,0,0,948,770a30.9,30.9,0,0,0-2.09-13.35l15.93-6.6a38.2,38.2,0,0,1,2.61,20.28,49.33,49.33,0,0,1-7.1,19,56.15,56.15,0,0,1-13.82,15.34,45.56,45.56,0,0,1-35.95,8.66,53.18,53.18,0,0,1-19.3-7.61,55.38,55.38,0,0,1-15.69-14.28,46.9,46.9,0,0,1-8-17.37,45.85,45.85,0,0,1-.19-18.93A55.85,55.85,0,0,1,872.13,736a46.43,46.43,0,0,1,12.49-13.46,42.17,42.17,0,0,1,18.12-6.92Z"/><path class="cls-1" d="M895.39,697.55l5.89-16,75.3,27.8,14.08-38.15,14.45,5.33-20,54.13Z"/><path class="cls-1" d="M917.87,632.85l10.06-62.57,15.21,2.45-7.36,45.76L959,622.22l7-43.36,15.2,2.45-7,43.36,25.61,4.12,7.75-48.16,15.21,2.45-10.45,65Z"/></svg>